HIERARCHY
ROOT joint_0
{
	OFFSET 0.000000 0.000000 0.000000
	CHANNELS 6 Xposition Yposition Zposition Zrotation Yrotation Xrotation 
	JOINT joint_1
	{
		OFFSET 0.511002 1.944000 108.288940
		CHANNELS 3 Zrotation Yrotation Xrotation
		JOINT joint_2
		{
			OFFSET -9.074005 1.512993 98.440063
			CHANNELS 3 Zrotation Yrotation Xrotation
			JOINT joint_3
			{
				OFFSET -8.590996 1.815002 98.366943
				CHANNELS 3 Zrotation Yrotation Xrotation
				JOINT joint_4
				{
					OFFSET 2.489998 3.531998 136.462036
					CHANNELS 3 Zrotation Yrotation Xrotation
					JOINT joint_5
					{
						OFFSET 22.708000 2.955002 80.357056
						CHANNELS 3 Zrotation Yrotation Xrotation
						End Site
						{
							OFFSET 0.000000 0.000000 0.000000
						}
					}
				}
				JOINT joint_6
				{
					OFFSET 2.860001 -27.684998 77.234009
					CHANNELS 3 Zrotation Yrotation Xrotation
					JOINT joint_7
					{
						OFFSET 5.449997 -131.244003 -18.851929
						CHANNELS 3 Zrotation Yrotation Xrotation
						JOINT joint_8
						{
							OFFSET 35.757000 -24.661995 -264.074097
							CHANNELS 3 Zrotation Yrotation Xrotation
							JOINT joint_9
							{
								OFFSET 49.392001 -1.747002 -239.960938
								CHANNELS 3 Zrotation Yrotation Xrotation
								End Site
								{
									OFFSET 0.000000 0.000000 0.000000
								}
							}
						}
					}
				}
				JOINT joint_10
				{
					OFFSET -0.127998 31.625000 75.753052
					CHANNELS 3 Zrotation Yrotation Xrotation
					JOINT joint_11
					{
						OFFSET -5.618004 131.132996 -19.557007
						CHANNELS 3 Zrotation Yrotation Xrotation
						JOINT joint_12
						{
							OFFSET 46.488998 30.127991 -261.826050
							CHANNELS 3 Zrotation Yrotation Xrotation
							JOINT joint_13
							{
								OFFSET 66.021003 0.474030 -235.934937
								CHANNELS 3 Zrotation Yrotation Xrotation
								End Site
								{
									OFFSET 0.000000 0.000000 0.000000
								}
							}
						}
					}
				}
			}
		}
	}
	JOINT joint_14
	{
		OFFSET 15.887001 -78.871004 -94.561035
		CHANNELS 3 Zrotation Yrotation Xrotation
		JOINT joint_15
		{
			OFFSET -4.133003 6.714001 -473.615967
			CHANNELS 3 Zrotation Yrotation Xrotation
			JOINT joint_16
			{
				OFFSET -19.541000 5.340000 -399.613007
				CHANNELS 3 Zrotation Yrotation Xrotation
				JOINT joint_17
				{
					OFFSET 164.317001 41.657999 -73.195000
					CHANNELS 3 Zrotation Yrotation Xrotation
					End Site
					{
						OFFSET 0.000000 0.000000 0.000000
					}
				}
			}
		}
	}
	JOINT joint_18
	{
		OFFSET 6.513000 77.960991 -96.406982
		CHANNELS 3 Zrotation Yrotation Xrotation
		JOINT joint_19
		{
			OFFSET -10.660004 -8.518997 -473.485016
			CHANNELS 3 Zrotation Yrotation Xrotation
			JOINT joint_20
			{
				OFFSET -36.967995 -11.098999 -398.260010
				CHANNELS 3 Zrotation Yrotation Xrotation
				JOINT joint_21
				{
					OFFSET 166.067997 30.363998 -74.785000
					CHANNELS 3 Zrotation Yrotation Xrotation
					End Site
					{
						OFFSET 0.000000 0.000000 0.000000
					}
				}
			}
		}
	}
}
MOTION
Frames: 12
Frame Time: 0.016667
-1974.698486 856.051453 1061.409058 2.531289 0.413634 0.629783 -0.703756 -2.398548 0.969614 -0.864312 0.266284 -0.195769 -0.815580 -0.542394 0.201001 0.142738 0.780201 -0.606414 0.000000 0.000000 0.000000 0.377565 -0.251362 -0.936341 0.224639 -0.216833 -0.628492 0.048966 3.101106 0.360348 0.000000 0.000000 0.000000 -3.776683 0.752539 -1.110002 0.125044 1.387633 0.134642 0.689680 2.817665 2.390265 0.000000 0.000000 0.000000 -2.722159 -1.631979 -1.370315 -2.716307 0.047659 -0.192200 -2.661631 0.303912 -1.260046 0.000000 0.000000 0.000000 -1.978648 -3.046456 2.667173 -1.945825 -0.502052 -1.201342 -2.016476 2.318302 -1.328758 0.000000 0.000000 0.000000 
-1974.686890 855.950073 1061.395996 2.529111 0.405573 0.627599 -0.701092 -2.413580 0.970629 -0.862154 0.267604 -0.196237 -0.813273 -0.545298 0.201414 0.138413 0.779387 -0.590987 0.000000 0.000000 0.000000 0.384445 -0.245698 -0.931230 0.223207 -0.210388 -0.633453 0.048732 3.100465 0.359312 0.000000 0.000000 0.000000 -3.772778 0.756586 -1.117530 0.125853 1.391687 0.138479 0.685510 2.806504 2.376083 0.000000 0.000000 0.000000 -2.721949 -1.628112 -1.361788 -2.715922 0.058035 -0.191453 -2.661251 0.307864 -1.260891 0.000000 0.000000 0.000000 -1.978616 -3.039848 2.677638 -1.945476 -0.495560 -1.205727 -2.016355 2.316427 -1.328359 0.000000 0.000000 0.000000 
-1974.676880 855.843506 1061.385010 2.532478 0.395506 0.627498 -0.699601 -2.426370 0.966806 -0.860646 0.269793 -0.196094 -0.811743 -0.547721 0.200950 0.133250 0.779101 -0.572674 0.000000 0.000000 0.000000 0.389187 -0.242267 -0.920652 0.221711 -0.206805 -0.640985 0.049336 3.096812 0.362246 0.000000 0.000000 0.000000 -3.770438 0.759330 -1.122697 0.126998 1.394577 0.141371 0.683718 2.797551 2.370237 0.000000 0.000000 0.000000 -2.723056 -1.618153 -1.354901 -2.717026 0.060787 -0.191702 -2.662245 0.313145 -1.262682 0.000000 0.000000 0.000000 -1.980652 -3.030601 2.686054 -1.947128 -0.491739 -1.210030 -2.018238 2.316237 -1.329166 0.000000 0.000000 0.000000 
-1974.670654 855.733643 1061.373047 2.539369 0.384727 0.628472 -0.698931 -2.436568 0.959197 -0.859476 0.270517 -0.195242 -0.810622 -0.549006 0.200890 0.127689 0.778731 -0.552954 0.000000 0.000000 0.000000 0.393677 -0.240680 -0.908363 0.220342 -0.205163 -0.647904 0.050282 3.090316 0.366746 0.000000 0.000000 0.000000 -3.768706 0.761234 -1.125910 0.128312 1.396626 0.143453 0.683265 2.789348 2.369114 0.000000 0.000000 0.000000 -2.724933 -1.605355 -1.348790 -2.718989 0.059431 -0.192615 -2.664056 0.318520 -1.264860 0.000000 0.000000 0.000000 -1.983997 -3.020527 2.693413 -1.950059 -0.489523 -1.214268 -2.021396 2.317016 -1.330721 0.000000 0.000000 0.000000 
-1974.674683 855.627075 1061.363037 2.543956 0.375487 0.628118 -0.697384 -2.446445 0.953290 -0.857644 0.272640 -0.194851 -0.808784 -0.550974 0.200600 0.122877 0.778102 -0.535846 0.000000 0.000000 0.000000 0.397414 -0.240917 -0.895502 0.219253 -0.205473 -0.653828 0.051332 3.082977 0.371703 0.000000 0.000000 0.000000 -3.767231 0.762885 -1.130396 0.130250 1.398735 0.148399 0.683153 2.781282 2.369190 0.000000 0.000000 0.000000 -2.726069 -1.595710 -1.341663 -2.720163 0.059397 -0.192754 -2.665049 0.324887 -1.266925 0.000000 0.000000 0.000000 -1.986546 -3.012776 2.701911 -1.952243 -0.486913 -1.217947 -2.023789 2.319120 -1.332176 0.000000 0.000000 0.000000 
-1974.695068 855.524231 1061.352051 2.541833 0.368529 0.625252 -0.693441 -2.453125 0.949823 -0.853470 0.272273 -0.193731 -0.804824 -0.551304 0.199301 0.119286 0.774743 -0.522698 0.000000 0.000000 0.000000 0.399750 -0.243916 -0.884430 0.218808 -0.208597 -0.655724 0.052259 3.074223 0.375989 0.000000 0.000000 0.000000 -3.768180 0.764106 -1.134964 0.132835 1.401003 0.156191 0.682916 2.771663 2.368827 0.000000 0.000000 0.000000 -2.724865 -1.591618 -1.332017 -2.718889 0.062553 -0.192525 -2.663648 0.332112 -1.268142 0.000000 0.000000 0.000000 -1.986743 -3.008449 2.713086 -1.952126 -0.482820 -1.221320 -2.023912 2.321879 -1.332731 0.000000 0.000000 0.000000 
-1974.726562 855.422607 1061.342041 2.537528 0.363321 0.621134 -0.688781 -2.459395 0.946773 -0.848554 0.273024 -0.191771 -0.800222 -0.552258 0.197389 0.116287 0.770641 -0.511543 0.000000 0.000000 0.000000 0.401788 -0.248700 -0.872929 0.218615 -0.213538 -0.656051 0.053217 3.063854 0.380353 0.000000 0.000000 0.000000 -3.769335 0.765146 -1.139755 0.135876 1.403307 0.166457 0.682798 2.762304 2.368874 0.000000 0.000000 0.000000 -2.722834 -1.590918 -1.321212 -2.716736 0.067061 -0.191721 -2.661369 0.339617 -1.269040 0.000000 0.000000 0.000000 -1.986183 -3.006636 2.725443 -1.951300 -0.478516 -1.224097 -2.023311 2.326249 -1.333257 0.000000 0.000000 0.000000 
-1974.765137 855.322449 1061.333008 2.535766 0.357634 0.618066 -0.685366 -2.463596 0.943071 -0.844772 0.273012 -0.189829 -0.796766 -0.551453 0.195831 0.114003 0.765665 -0.502803 0.000000 0.000000 0.000000 0.405801 -0.254296 -0.860987 0.218460 -0.219057 -0.657008 0.054493 3.053085 0.386264 0.000000 0.000000 0.000000 -3.770255 0.766381 -1.145792 0.139346 1.405958 0.178410 0.683138 2.753710 2.370496 0.000000 0.000000 0.000000 -2.721703 -1.590390 -1.311963 -2.715487 0.072436 -0.190624 -2.659974 0.347037 -1.270309 0.000000 0.000000 0.000000 -1.986279 -3.005123 2.736722 -1.951134 -0.474136 -1.227663 -2.023420 2.331079 -1.334183 0.000000 0.000000 0.000000 
-1974.809814 855.222778 1061.322998 2.539215 0.349697 0.617107 -0.683864 -2.464025 0.938019 -0.842794 0.273909 -0.188819 -0.794859 -0.551987 0.195797 0.112081 0.761591 -0.495456 0.000000 0.000000 0.000000 0.410926 -0.259834 -0.849224 0.218310 -0.224397 -0.659021 0.056450 3.041600 0.395486 0.000000 0.000000 0.000000 -3.772214 0.768386 -1.152619 0.142941 1.409632 0.191400 0.683998 2.748497 2.373825 0.000000 0.000000 0.000000 -2.722458 -1.587961 -1.305966 -2.716161 0.078970 -0.188318 -2.660450 0.353146 -1.272076 0.000000 0.000000 0.000000 -1.988115 -3.001644 2.745618 -1.952674 -0.471046 -1.231623 -2.025244 2.336532 -1.335992 0.000000 0.000000 0.000000 
-1974.862671 855.125549 1061.312988 2.545125 0.340837 0.616960 -0.683514 -2.460783 0.933963 -0.842085 0.273232 -0.189236 -0.794202 -0.551341 0.195040 0.110507 0.755137 -0.489026 0.000000 0.000000 0.000000 0.418478 -0.266081 -0.835915 0.218135 -0.230189 -0.661803 0.058650 3.029641 0.405888 0.000000 0.000000 0.000000 -3.772512 0.770642 -1.159090 0.146728 1.413358 0.205225 0.685368 2.744669 2.378922 0.000000 0.000000 0.000000 -2.723838 -1.585426 -1.301383 -2.717456 0.086874 -0.185829 -2.661572 0.358125 -1.273844 0.000000 0.000000 0.000000 -1.990758 -2.997930 2.753474 -1.955022 -0.468092 -1.235778 -2.027870 2.342281 -1.338213 0.000000 0.000000 0.000000 
-1974.921387 855.026917 1061.302979 2.550772 0.333650 0.617061 -0.682445 -2.458910 0.928115 -0.840485 0.273403 -0.189045 -0.792624 -0.550227 0.195221 0.109485 0.749473 -0.484654 0.000000 0.000000 0.000000 0.423625 -0.271624 -0.821759 0.217880 -0.235664 -0.665078 0.060476 3.019324 0.414536 0.000000 0.000000 0.000000 -3.774092 0.772998 -1.166327 0.150764 1.417483 0.219863 0.686869 2.740713 2.384502 0.000000 0.000000 0.000000 -2.725157 -1.585754 -1.296206 -2.718631 0.095996 -0.184745 -2.662682 0.362364 -1.275416 0.000000 0.000000 0.000000 -1.993320 -2.996525 2.761477 -1.957331 -0.464781 -1.240560 -2.030503 2.347751 -1.340385 0.000000 0.000000 0.000000 
-1974.982056 854.927063 1061.291992 2.555619 0.329544 0.616904 -0.680208 -2.459243 0.921489 -0.837592 0.273555 -0.187677 -0.789980 -0.550223 0.193745 0.109067 0.745666 -0.482655 0.000000 0.000000 0.000000 0.425957 -0.275056 -0.806059 0.217502 -0.239413 -0.666732 0.061386 3.010461 0.418778 0.000000 0.000000 0.000000 -3.775513 0.776532 -1.172918 0.155090 1.422812 0.235289 0.688161 2.735883 2.389425 0.000000 0.000000 0.000000 -2.726541 -1.590035 -1.289269 -2.719784 0.106202 -0.185981 -2.663939 0.365097 -1.276672 0.000000 0.000000 0.000000 -1.995774 -2.998142 2.770410 -1.959555 -0.462072 -1.246014 -2.033123 2.352066 -1.342338 0.000000 0.000000 0.000000 
